<svg viewBox="0 0 24 24" fill="none" xmlns="http://www.w3.org/2000/svg">
<path d="M12 13.5C14.303 13.5 16.17 11.633 16.17 9.33C16.17 7.02697 14.303 5.16 12 5.16C9.69697 5.16 7.83 7.02697 7.83 9.33C7.83 11.633 9.69697 13.5 12 13.5ZM12 12C10.5254 12 9.33 10.8046 9.33 9.33C9.33 7.8554 10.5254 6.66 12 6.66C13.4746 6.66 14.67 7.8554 14.67 9.33C14.67 10.8046 13.4746 12 12 12Z" fill="black" fill-opacity="0.9"/>
<path d="M12 22.5C17.799 22.5 22.5 17.799 22.5 12C22.5 6.20101 17.799 1.5 12 1.5C6.20101 1.5 1.5 6.20101 1.5 12C1.5 17.799 6.20101 22.5 12 22.5ZM19.4932 16.9869C17.2122 15.7148 14.6783 15 12 15C9.32162 15 6.78779 15.7148 4.50677 16.9869C3.55486 15.5594 3 13.8445 3 12C3 7.02944 7.02944 3 12 3C16.9706 3 21 7.02944 21 12C21 13.8445 20.4451 15.5594 19.4932 16.9869ZM18.5449 18.1778C16.904 19.9155 14.5786 21 12 21C9.42135 21 7.09598 19.9155 5.45512 18.1778C7.47074 17.0964 9.67924 16.5 12 16.5C14.3207 16.5 16.5292 17.0964 18.5449 18.1778Z" fill="black" fill-opacity="0.9"/>
</svg>
