<svg viewBox="0 0 24 24" fill="none" xmlns="http://www.w3.org/2000/svg">
<path d="M12.7162 11.25L1.5 11.25L1.5 12.75L12.7162 12.75L9.34749 16.1187L10.4082 17.1793L15.0572 12.5303C15.3501 12.2374 15.3501 11.7626 15.0572 11.4697L10.4082 6.82065L9.34749 7.88131L12.7162 11.25Z" fill="black" fill-opacity="0.9"/>
<path d="M6.00008 7.5V4.5H18.0001V19.5H6.00008V16.5H4.50008V20.25C4.50008 20.6642 4.83587 21 5.25008 21H18.7501C19.1643 21 19.5001 20.6642 19.5001 20.25V3.75C19.5001 3.33579 19.1643 3 18.7501 3H5.25008C4.83587 3 4.50008 3.33579 4.50008 3.75V7.5H6.00008Z" fill="black" fill-opacity="0.9"/>
</svg>
