<svg viewBox="0 0 24 24" fill="none" xmlns="http://www.w3.org/2000/svg">
<path d="M11.2584 17.9996H12.7584V9.75H11.2584V17.9996Z" fill="black" fill-opacity="0.9"/>
<path d="M12.8998 6V7.79993H11.0999V6H12.8998Z" fill="black" fill-opacity="0.9"/>
<path d="M1.5 12C1.5 17.799 6.20105 22.5 12 22.5C17.799 22.5 22.5 17.799 22.5 12C22.5 6.20105 17.799 1.5 12 1.5C6.20105 1.5 1.5 6.20105 1.5 12ZM3 12C3 7.02942 7.02942 3 12 3C16.9706 3 21 7.02942 21 12C21 16.9706 16.9706 21 12 21C7.02942 21 3 16.9706 3 12Z" fill="black" fill-opacity="0.9"/>
</svg>
