<svg viewBox="0 0 22 20" fill="none" xmlns="http://www.w3.org/2000/svg">
<path d="M4.53428 17.1927L4.53408 17.1924C4.19224 16.8042 4.23309 16.4803 4.23531 16.4626L4.23532 16.4626L4.23767 16.4439L4.23908 16.4252C4.25001 16.2805 4.60166 11.9966 4.89446 10.0179L4.96339 9.55211L4.57385 9.28762C4.45924 9.20979 4.32034 9.14542 4.23128 9.10585C4.13251 9.06197 4.03266 9.02184 3.96781 8.99578L3.96229 8.99356L3.96232 8.99349L3.95261 8.98974C3.85854 8.95343 3.76568 8.91406 3.67417 8.8717C3.46129 8.77169 3.13037 8.61052 2.84836 8.47217C2.70781 8.40322 2.58085 8.34066 2.48902 8.29532L2.38044 8.24166L2.35104 8.22711L2.34344 8.22335L2.34153 8.2224L2.34106 8.22217L2.34095 8.22211L2.34093 8.2221L2.00788 8.8941L2.34092 8.2221L2.33101 8.21719L2.32095 8.21256C1.27452 7.73187 0.864811 7.21378 0.772635 6.78263L0.772572 6.78234C0.696583 6.42759 0.82909 6.1305 0.951503 5.98825C0.961259 5.97739 0.967689 5.97154 0.97033 5.96931L0.970334 5.96931L0.972667 5.96732L6.29467 1.42665L6.29589 1.42561C6.31893 1.40586 6.34648 1.39208 6.3761 1.38546C6.40573 1.37885 6.43652 1.37962 6.46578 1.38769L6.66213 0.676196L6.46578 1.38769C6.49504 1.39576 6.52187 1.4109 6.54391 1.43177C6.56595 1.45264 6.58252 1.4786 6.59218 1.50738L6.59263 1.50873C7.34472 3.73577 9.52593 4.00476 10.5339 4.00476C10.6813 4.00476 10.8037 3.99879 10.8916 3.99254C10.9356 3.98941 10.9713 3.98619 10.9973 3.98357L11.0292 3.98017L11.0395 3.97896L11.0433 3.97851L11.0441 3.9784C11.0636 3.97599 11.0855 3.97626 11.1009 3.97829L11.1009 3.97833L11.1085 3.97926L11.1992 3.23476C11.1085 3.97926 11.1086 3.97927 11.1086 3.97927L11.1088 3.97929L11.1091 3.97933L11.1097 3.9794L11.1111 3.97958L11.1147 3.98L11.1247 3.98112L11.1556 3.98429C11.1808 3.98674 11.2153 3.98974 11.2579 3.99267C11.343 3.99851 11.4615 4.0041 11.6039 4.0041C12.6002 4.0041 14.7464 3.73228 15.4856 1.50869L15.4856 1.50865C15.4953 1.47952 15.512 1.45323 15.5343 1.4321C15.5565 1.41097 15.5837 1.39566 15.6133 1.38753C15.6429 1.3794 15.674 1.37869 15.704 1.38547C15.7339 1.39225 15.7617 1.40631 15.7849 1.42641L15.785 1.42648L21.0303 5.96715L21.0304 5.96722C21.038 5.97382 21.043 5.97909 21.0453 5.98189L21.0453 5.9819L21.0496 5.98691C21.1704 6.12717 21.3039 6.42682 21.2268 6.78376L21.2266 6.78452C21.1343 7.21426 20.731 7.73105 19.676 8.22216L19.6655 8.22706L19.6551 8.2323L19.9925 8.9021L19.6551 8.2323L19.6551 8.23231L19.655 8.23236L19.6545 8.23259L19.6527 8.23352L19.6454 8.2372L19.617 8.25147L19.5122 8.30409C19.4236 8.34856 19.3011 8.40994 19.1653 8.47762C18.8925 8.61359 18.5724 8.77198 18.3658 8.87048C18.2905 8.90597 18.1988 8.94422 18.0825 8.99168L18.0781 8.99349C18.0148 9.01925 17.9166 9.05925 17.8193 9.10306C17.7321 9.1423 17.5944 9.20692 17.4807 9.28542L17.0973 9.54985L17.1643 10.0107C17.4547 12.0079 17.8002 16.2787 17.8156 16.4712L17.8173 16.4921L17.8196 16.5094C17.8196 16.509 17.8195 16.5089 17.8195 16.5089C17.8187 16.5089 17.8431 16.824 17.5115 17.1999L17.5108 17.2006C17.1609 17.5984 16.513 17.9657 15.4215 18.2267C14.34 18.4854 12.9027 18.6208 11.0725 18.6208C9.21034 18.6208 7.74851 18.4845 6.64982 18.2241C5.54023 17.9612 4.885 17.5913 4.53428 17.1927Z" stroke="black" stroke-width="1.5"/>
</svg>
