<svg viewBox="0 0 18 18" fill="none" xmlns="http://www.w3.org/2000/svg">
<path d="M6 3H3V6H6V3Z" fill="black" fill-opacity="0.9"/>
<path d="M0.75 0C0.335786 0 0 0.335786 0 0.75V8.25C0 8.66421 0.335786 9 0.75 9H8.25C8.66421 9 9 8.66421 9 8.25V0.75C9 0.335786 8.66421 0 8.25 0H0.75ZM1.5 1.5H7.5V7.5H1.5V1.5Z" fill="black" fill-opacity="0.9"/>
<path d="M12.75 0C12.3358 0 12 0.335786 12 0.75V5.25C12 5.66421 12.3358 6 12.75 6H17.25C17.6642 6 18 5.66421 18 5.25V0.75C18 0.335786 17.6642 0 17.25 0H12.75ZM13.5 4.5V1.5H16.5V4.5H13.5Z" fill="black" fill-opacity="0.9"/>
<path d="M12 12.75V17.25C12 17.6642 12.3358 18 12.75 18H17.25C17.6642 18 18 17.6642 18 17.25V12.75C18 12.3358 17.6642 12 17.25 12H12.75C12.3358 12 12 12.3358 12 12.75ZM13.5 16.5V13.5H16.5V16.5H13.5Z" fill="black" fill-opacity="0.9"/>
<path d="M0.75 12C0.335786 12 0 12.3358 0 12.75V17.25C0 17.6642 0.335786 18 0.75 18H5.25C5.66421 18 6 17.6642 6 17.25V12.75C6 12.3358 5.66421 12 5.25 12H0.75ZM1.5 13.5H4.5V16.5H1.5V13.5Z" fill="black" fill-opacity="0.9"/>
<path d="M18 8.25L12 8.25V9.75L18 9.75V8.25Z" fill="black" fill-opacity="0.9"/>
<path d="M9.75 13.5H8.25V18H9.75V13.5Z" fill="black" fill-opacity="0.9"/>
<path d="M9.75 12H8.25V10.5H9.75V12Z" fill="black" fill-opacity="0.9"/>
</svg>
