<svg viewBox="0 0 20 20" fill="none" xmlns="http://www.w3.org/2000/svg">
<path d="M10 5C10.6903 5 11.25 4.44035 11.25 3.75C11.25 3.05965 10.6903 2.5 10 2.5C9.30969 2.5 8.75 3.05965 8.75 3.75C8.75 4.44035 9.30969 5 10 5Z" fill="#15181D"/>
<path d="M10 11.25C10.6903 11.25 11.25 10.6903 11.25 10C11.25 9.30965 10.6903 8.75 10 8.75C9.30969 8.75 8.75 9.30965 8.75 10C8.75 10.6903 9.30969 11.25 10 11.25Z" fill="#15181D"/>
<path d="M11.25 16.25C11.25 15.5597 10.6903 15 10 15C9.30969 15 8.75 15.5597 8.75 16.25C8.75 16.9403 9.30969 17.5 10 17.5C10.6903 17.5 11.25 16.9403 11.25 16.25Z" fill="#15181D"/>
</svg>
