<?xml version="1.0" encoding="utf-8"?>
<svg viewBox="0 0 24 24" fill="none" xmlns="http://www.w3.org/2000/svg">
  <path fill="#000" d="M 2.996 0.266 C 1.948 0.266 1.099 1.115 1.099 2.163 L 1.099 21.679 C 1.099 22.726 1.949 23.576 2.996 23.576 L 11.67 23.576 L 11.67 21.95 L 2.996 21.95 C 2.847 21.95 2.725 21.828 2.725 21.679 L 2.725 2.163 C 2.725 2.014 2.847 1.892 2.996 1.892 L 20.343 1.892 C 20.493 1.892 20.614 2.014 20.614 2.163 L 20.614 11.921 L 22.241 11.921 L 22.241 2.163 C 22.241 1.115 21.391 0.266 20.343 0.266 L 2.996 0.266 Z M 17.907 6.771 L 5.439 6.771 L 5.439 8.397 L 17.907 8.397 L 17.907 6.771 Z M 13.403 11.108 L 5.439 11.108 L 5.439 12.734 L 13.403 12.734 L 13.403 11.108 Z M 10.652 15.445 L 5.439 15.445 L 5.439 17.071 L 10.652 17.071 L 10.652 15.445 Z M 18.449 18.155 L 14.926 18.155 L 14.926 16.529 L 18.449 16.529 L 18.449 13.005 L 20.075 13.005 L 20.075 16.529 L 23.599 16.529 L 23.599 18.155 L 20.075 18.155 L 20.075 21.679 L 18.449 21.679 L 18.449 18.155 Z"/>
</svg>