<?xml version="1.0" encoding="utf-8"?>
<svg viewBox="0 0 24 24" fill="none" xmlns="http://www.w3.org/2000/svg">
  <path d="M 19.75 3.625 L 4.75 3.625 L 4.75 9.25 L 2.875 9.25 L 2.875 3.625 C 2.875 2.589 3.715 1.75 4.75 1.75 L 19.75 1.75 C 20.786 1.75 21.625 2.589 21.625 3.625 L 21.625 9.25 L 19.75 9.25 L 19.75 3.625 Z" fill="black" fill-opacity="0.9" style="fill:black;fill-opacity:0.9;"/>
  <path d="M 2.875 14.875 L 4.75 14.875 L 4.75 20.5 L 19.75 20.5 L 19.75 14.875 L 21.625 14.875 L 21.625 20.5 C 21.625 21.536 20.786 22.375 19.75 22.375 L 4.75 22.375 C 3.715 22.375 2.875 21.536 2.875 20.5 L 2.875 14.875 Z" fill="black" fill-opacity="0.9" style="fill:black;fill-opacity:0.9;"/>
  <path d="M 23.5 11.125 L 23.5 13 L 1 13 L 1 11.125 L 23.5 11.125 Z" fill="black" fill-opacity="0.9" style="fill:black;fill-opacity:0.9;"/>
</svg>