<?xml version="1.0" encoding="utf-8"?>
<svg viewBox="0 0 24 24" fill="none" xmlns="http://www.w3.org/2000/svg">
  <path fill-rule="evenodd" clip-rule="evenodd" d="M 2.743 11.641 C 2.743 6.612 6.821 2.534 11.85 2.534 C 16.88 2.534 20.957 6.612 20.957 11.641 C 20.957 16.671 16.88 20.748 11.85 20.748 C 6.821 20.748 2.743 16.671 2.743 11.641 Z M 11.85 0.713 C 5.815 0.713 0.922 5.606 0.922 11.641 C 0.922 17.676 5.815 22.569 11.85 22.569 C 14.54 22.569 17.003 21.597 18.907 19.986 L 22.134 23.213 L 23.422 21.925 L 20.195 18.698 C 21.806 16.794 22.778 14.331 22.778 11.641 C 22.778 5.606 17.885 0.713 11.85 0.713 Z" fill="#181919" style="fill:#181919;fill-opacity:1;"/>
</svg>