<svg viewBox="0 0 21 20" fill="none" xmlns="http://www.w3.org/2000/svg">
<path d="M17.832 10C17.832 14.1421 14.4742 17.5 10.332 17.5C9.33441 17.5 8.38228 17.3052 7.51161 16.9516C7.34497 16.8839 7.26165 16.8501 7.1943 16.835C7.12841 16.8202 7.07966 16.8148 7.01214 16.8148C6.94312 16.8148 6.86794 16.8273 6.71757 16.8524L3.75267 17.3466C3.44218 17.3983 3.28694 17.4242 3.17468 17.376C3.07643 17.3339 2.99814 17.2556 2.956 17.1573C2.90785 17.0451 2.93372 16.8898 2.98547 16.5794L3.47962 13.6145C3.50468 13.4641 3.51721 13.3889 3.5172 13.3199C3.51719 13.2524 3.51179 13.2036 3.49703 13.1377C3.48193 13.0704 3.44809 12.9871 3.38042 12.8204C3.02681 11.9497 2.83203 10.9976 2.83203 10C2.83203 5.85786 6.1899 2.5 10.332 2.5C14.4742 2.5 17.832 5.85786 17.832 10Z" stroke="#15181D" stroke-width="1.25" stroke-linecap="round" stroke-linejoin="round"/>
</svg>
