<svg viewBox="0 0 21 20" fill="none" xmlns="http://www.w3.org/2000/svg">
<path d="M17.4921 10.5071C17.6956 10.3328 17.7973 10.2456 17.8346 10.1418C17.8673 10.0508 17.8673 9.95117 17.8346 9.86011C17.7973 9.75636 17.6956 9.66918 17.4921 9.4948L10.4332 3.44429C10.083 3.14412 9.90792 2.99404 9.75968 2.99036C9.63085 2.98717 9.50778 3.04377 9.42637 3.14367C9.33268 3.25861 9.33268 3.48923 9.33268 3.95045V7.52984C7.55378 7.84105 5.92568 8.74244 4.71577 10.0959C3.3967 11.5714 2.66704 13.4809 2.66602 15.4601V15.9701C3.54047 14.9167 4.63227 14.0647 5.86665 13.4726C6.95493 12.9505 8.13136 12.6412 9.33268 12.5597V16.0515C9.33268 16.5127 9.33268 16.7433 9.42637 16.8583C9.50778 16.9582 9.63085 17.0148 9.75968 17.0116C9.90792 17.0079 10.083 16.8578 10.4332 16.5577L17.4921 10.5071Z" stroke="#15181D" stroke-width="1.25" stroke-linecap="round" stroke-linejoin="round"/>
</svg>
