<svg viewBox="0 0 21 20" fill="none" xmlns="http://www.w3.org/2000/svg">
<g opacity="0.9">
<path fill-rule="evenodd" clip-rule="evenodd" d="M10.494 3.72014C8.72132 2.17098 6.09975 1.85396 4.06391 3.59343C1.86179 5.47497 1.54184 8.64377 3.28322 10.8846C3.94423 11.7352 5.23438 13.013 6.47424 14.1833C7.72862 15.3673 8.9801 16.4861 9.59727 17.0327C9.60113 17.0361 9.60506 17.0396 9.60905 17.0431C9.66707 17.0945 9.7393 17.1585 9.80854 17.2107C9.89145 17.2731 10.0105 17.3506 10.1694 17.3981C10.3807 17.4611 10.6078 17.4611 10.8191 17.3981C10.9781 17.3506 11.0971 17.2731 11.18 17.2107C11.2492 17.1585 11.3215 17.0945 11.3795 17.0431C11.3835 17.0396 11.3874 17.0361 11.3913 17.0327C12.0084 16.4861 13.2599 15.3673 14.5143 14.1833C15.7542 13.013 17.0443 11.7352 17.7053 10.8846C19.44 8.65238 19.1695 5.45914 16.9168 3.58679C14.8582 1.87585 12.2646 2.17039 10.494 3.72014Z" stroke="#15181D" stroke-width="1.25" stroke-linecap="round" stroke-linejoin="round"/>
</g>
</svg>
