<svg viewBox="0 0 32 32" fill="none" xmlns="http://www.w3.org/2000/svg">
<path d="M23.1 15.4803C23.5 15.7113 23.5 16.2886 23.1 16.5196L12.9 22.4086C12.5 22.6395 12 22.3508 12 21.8889L12 10.111C12 9.64912 12.5 9.36045 12.9 9.59139L23.1 15.4803Z" fill="white"/>
<path d="M16 2C23.732 2 30 8.26802 30 16C30 23.732 23.732 30 16 30C8.26801 30 2 23.732 2 16C2 8.26801 8.26802 2 16 2ZM16 4C9.37259 4 4 9.37258 4 16C4 22.6274 9.37258 28 16 28C22.6274 28 28 22.6274 28 16C28 9.37259 22.6274 4 16 4Z" fill="white"/>
</svg>
